<svg xmlns="http://www.w3.org/2000/svg" width="1024" height="1024" viewBox="0 0 1024 1024"><path style="stroke:none;fill-rule:nonzero;fill:#205550;fill-opacity:1" d="M594 100c-67.602 10-127.2 42-180.8 96.8-26 26.4-30 41.2-16.4 57.2 17.2 20 29.2 16 69.2-20.8 54.8-51.598 104.8-73.2 170-73.2 62.8 0 114.398 21.602 160.398 67.602S864 325.199 864 388c0 65.2-21.602 115.2-73.2 170-36.8 40-40.8 52-20.8 69.2 16 13.6 30.8 9.6 57.2-16.4 93.6-91.6 122.8-208.402 80.8-324C861.602 160.399 726.8 80 594 100M222 391.602c-10.398 4.398-56.8 53.597-74 78C41.602 624.8 111.2 843.602 287.602 908c114.796 42 231.597 12.8 323.199-80.8 26-26.4 30-41.2 16.398-57.2C610 750 598 754 558 790.8 503.2 842.399 453.2 864 388 864c-62.8 0-114.398-21.602-160.398-67.602S160 698.801 160 636c0-65.2 21.602-115.2 73.2-170 36.8-39.602 40.8-52 21.198-68.8-11.199-9.598-18.796-10.802-32.398-5.598m0 0"/><path style="stroke:none;fill-rule:nonzero;fill:#1c464b;fill-opacity:1" d="M586 395.602C567.602 407.199 393.2 584.8 390 595.199c-7.2 23.602 18.398 46.403 41.2 37.2 14.8-6 198.8-191.2 202.8-203.598 3.602-12.801-5.2-32.801-16.8-37.2-13.598-5.203-17.598-4.402-31.2 4m0 0"/></svg>