<svg height="1024pt" stroke-miterlimit="10" style="fill-rule:nonzero;clip-rule:evenodd;stroke-linecap:round;stroke-linejoin:round" viewBox="0 0 1024 1024" width="1024pt" xml:space="preserve" xmlns="http://www.w3.org/2000/svg"><g fill="#205550"><path d="M575.32 190c-52.73 7.8-99.216 32.76-141.024 75.504-20.28 20.592-23.4 32.136-12.792 44.616 13.416 15.6 22.776 12.48 53.976-16.224 42.744-40.246 81.744-57.096 132.6-57.096 48.984 0 89.23 16.85 125.11 52.73s52.73 76.125 52.73 125.11c0 50.856-16.85 89.856-57.096 132.6C700.12 578.44 697 587.8 712.6 601.216c12.48 10.608 24.024 7.488 44.616-12.792C830.224 516.976 853 425.87 820.24 335.704 784.05 237.111 678.904 174.4 575.32 190M285.16 417.45c-8.11 3.43-44.304 41.805-57.72 60.84-82.99 121.054-28.704 291.72 108.89 341.95 89.54 32.76 180.645 9.984 252.095-63.024 20.28-20.592 23.4-32.136 12.79-44.616-13.415-15.6-22.775-12.48-53.975 16.224-42.744 40.247-81.744 57.096-132.6 57.096-48.984 0-89.23-16.85-125.11-52.73s-52.73-76.125-52.73-125.11c0-50.856 16.85-89.856 57.096-132.6 28.704-30.89 31.824-40.56 16.534-53.664-8.735-7.486-14.66-8.426-25.27-4.366"/><path d="M569.08 420.57c-14.35 9.045-150.384 147.574-152.88 155.685-5.616 18.41 14.35 36.195 32.136 29.016 11.544-4.68 155.064-149.136 158.184-158.806 2.81-9.985-4.056-25.585-13.104-29.016-10.606-4.059-13.726-3.434-24.336 3.12"/></g></svg>